# xmcd
#
# Track frame offsets: 
#        150
#        14524
#        26715
#        45109
#        59172
#        71548
#        87389
#        103050
#        120674
#        132867
#        147958
#        168761
#
# Disc length: 2425 seconds
#
# Revision: 0
# Processed by: cddbd v1.5.2PL0 Copyright (c) Steve Scherf et al.
# Submitted via: ExactAudioCopy v0.95b4
#
DISCID=a309770c
DTITLE=Crazy Ex-Girlfriend - Miranda Lambert
DYEAR=2007
DGENRE=Country
TTITLE0=Gunpowder and Lead
TTITLE1=Dry Town
TTITLE2=Famous In A Small Town
TTITLE3=Crazy Ex-Girlfriend
TTITLE4=Love Letters
TTITLE5=Desperation
TTITLE6=More Like Her
TTITLE7=Down
TTITLE8=Guilty In Here
TTITLE9=Getting Ready
TTITLE10=Easy From Now On
TTITLE11=Girl Like Me (Bonus Track)
EXTD=
EXTT0=
EXTT1=
EXTT2=
EXTT3=
EXTT4=
EXTT5=
EXTT6=
EXTT7=
EXTT8=
EXTT9=
EXTT10=
EXTT11=
PLAYORDER=
